<?xml version="1.0" encoding="utf-8"?>
<!-- Generator: Adobe Illustrator 26.0.2, SVG Export Plug-In . SVG Version: 6.00 Build 0)  -->
<svg version="1.1" id="Layer_1" xmlns="http://www.w3.org/2000/svg" xmlns:xlink="http://www.w3.org/1999/xlink" x="0px" y="0px"
	 viewBox="0 0 100 100" style="enable-background:new 0 0 100 100;" xml:space="preserve">
<path d="M51.2,7.1l-5,4.8C35,22,21.4,29.4,6.5,32.5c-1.2,0.2-2.2,1.3-2.2,2.6c0,1.3,1,2.2,2.7,2.5c5,0.8,9.6,2.7,13.5,5.9
	c2.8,2.3,3.8,5.4,3.2,9c-0.4,2.3-1.6,4.2-3.1,5.9c-5.3,5.8-11.5,10.8-8.5,19.5c1.8,5.3,6.5,8.6,11.9,8.5c5.4-0.1,10.1-3.2,14.7-5.8
	c0,0,0,0,0,0c6.7-6.5,18.3-6.5,25,0c0,0,0,0,0,0c0.4,0.2,0.7,0.4,1.1,0.7c5.3,3.3,11.8,6.5,18.1,4.3c6.3-2.2,9.6-9.8,7.3-16.3
	c-1-2.7-2.8-4.9-4.7-7c-1.7-1.8-3.5-3.6-5-5.6c-3.4-4.6-2.5-10.4,2-13.7c3.4-2.5,7.1-4.2,11.2-5.2c1.8-0.4,4.4-0.4,4.4-2.9
	c0-1.2-0.7-2.1-2-2.4c-15.3-3.2-29.2-10.7-40.5-21.4L51.2,7.1z M66.4,65.8c-1-0.4-1.9-0.9-2.8-1.3c-1.7-0.9-3.3-2-5-2.9
	c-4.9-2.5-9.8-2.4-14.6,0c-1.7,0.9-3.3,2-5,2.9c-1.4,0.7-2.9,1.5-4.4,1.8c-4.1,1-6.9-3.4-5.8-6.6c0.5-1.2,1.2-2.4,2-3.5
	c1.1-1.4,2.4-2.6,3.5-4c3-3.8,3.2-9.2,0.4-12.9c-1.5-2-3.6-3.2-5.8-4.4c-0.2-0.1-0.1-0.3,0-0.3c8.6-3.2,16-7.9,22.3-14.3
	c0.1-0.1,0.2-0.1,0.3,0c6.1,6.4,13.8,11.3,22.2,14.3c0.2,0,0.2,0.3,0,0.3c-2.7,1.5-5.4,3.1-6.7,6c-1.8,3.9-1.4,7.6,1.1,11
	c1.6,2.2,3.7,4,5.1,6.4C75.7,62.7,71.1,67.7,66.4,65.8z"/>
</svg>
