<?xml version="1.0" encoding="utf-8"?>
<!-- Generator: Adobe Illustrator 26.0.2, SVG Export Plug-In . SVG Version: 6.00 Build 0)  -->
<svg version="1.1" id="Layer_1" xmlns="http://www.w3.org/2000/svg" xmlns:xlink="http://www.w3.org/1999/xlink" x="0px" y="0px"
	 viewBox="0 0 100 100" style="enable-background:new 0 0 100 100;" xml:space="preserve">
<g>
	<polygon points="41.2,23.9 54.1,6.3 55.4,28.4 71.5,31.5 56.5,37.7 57.2,55.4 42.7,43.2 20.8,44.2 34.3,31.5 22.9,16.6 	"/>
	<polygon points="58.4,64.9 68.7,51 69.7,68.5 82.5,71 70.6,75.9 71.1,90 60,75.2 42.3,81.1 53,71 43.9,59.2 	"/>
	<polygon points="26,67.9 16.7,62.4 27.2,61.5 27.7,54.3 31.6,60.9 40.1,60.3 35.1,66.9 37,76.5 30.1,70.8 23.6,76.1 	"/>
</g>
</svg>
