<?xml version="1.0" encoding="utf-8"?>
<!-- Generator: Adobe Illustrator 26.0.2, SVG Export Plug-In . SVG Version: 6.00 Build 0)  -->
<svg version="1.1" id="Layer_1" xmlns="http://www.w3.org/2000/svg" xmlns:xlink="http://www.w3.org/1999/xlink" x="0px" y="0px"
	 viewBox="0 0 100 100" style="enable-background:new 0 0 100 100;" xml:space="preserve">
<path d="M50.9,44c1.1-1.3,2.1-2.7,3.4-3.7c2.6-2.1,7-1.8,9.3,0.4c4.3,4.1,2.6,9.8-0.1,12.9c-2.6,3-5.5,5.8-8.3,8.7
	c-1,1-1.8,2.2-2.8,3.3c-0.3,0.4-0.7,0.8-1.1,1.2c-1.9-2-3.8-3.9-5.6-5.8c-1.3-1.3-2.6-2.5-3.9-3.8c-1.4-1.5-2.9-2.9-4.1-4.6
	c-2.6-3.7-2.9-9.2,1.5-12.2c3.5-2.5,7.6-1.6,10.1,1.8C49.9,42.9,50.4,43.5,50.9,44z"/>
</svg>
